<svg width="200" height="200" viewBox="0 0 200 200" xmlns="http://www.w3.org/2000/svg">
  <rect width="200" height="200" fill="#ffffff"/>
  <!-- Book Icon -->
  <path d="M50 70 C 50 70, 90 70, 100 90 C 110 70, 150 70, 150 70 V 150 C 150 150, 110 150, 100 130 C 90 150, 50 150, 50 150 Z" fill="#2196F3" stroke="#1565C0" stroke-width="4"/>
  <!-- Speech Bubble -->
  <path d="M120 40 Q 180 40 180 90 Q 180 130 140 135 L 120 150 L 130 130 Q 80 120 80 90 Q 80 40 120 40 Z" fill="#E3F2FD" stroke="#1565C0" stroke-width="3" opacity="0.9"/>
  <!-- Text Lines in Book -->
  <line x1="60" y1="90" x2="90" y2="90" stroke="#FFFFFF" stroke-width="2"/>
  <line x1="60" y1="105" x2="90" y2="105" stroke="#FFFFFF" stroke-width="2"/>
  <line x1="60" y1="120" x2="90" y2="120" stroke="#FFFFFF" stroke-width="2"/>
</svg>
